<?xml version="1.0" encoding="utf-8"?>
<!-- Generator: Adobe Illustrator 18.1.1, SVG Export Plug-In . SVG Version: 6.00 Build 0)  -->
<svg version="1.1" id="Layer_1" xmlns="http://www.w3.org/2000/svg" xmlns:xlink="http://www.w3.org/1999/xlink" x="0px" y="0px"
	 viewBox="-13 2.5 543.5 271.5" enable-background="new -13 2.5 543.5 271.5" xml:space="preserve">
<rect x="4" y="21.3" fill="#FFFFFF" stroke="#000000" stroke-width="0.5" stroke-miterlimit="10" width="150" height="50"/>
<text transform="matrix(1 0 0 1 41.2682 50.5497)" font-family="'Roboto-Light'" font-size="10">BlazeComponent</text>
<rect x="4" y="206.5" fill="#FFFFFF" stroke="#000000" stroke-width="0.5" stroke-miterlimit="10" width="150" height="50"/>
<text transform="matrix(1 0 0 1 46.4317 235.2723)" font-family="'Roboto-Light'" font-size="10">MyComponent</text>
<g>
	<g>
		<line fill="none" stroke="#000000" stroke-miterlimit="10" x1="79" y1="206.5" x2="79" y2="78.5"/>
		<g>
			<polygon points="84,79.9 79,71.3 74,79.9 			"/>
		</g>
	</g>
</g>
<rect x="183" y="206.5" fill="#FFFFFF" stroke="#000000" stroke-width="0.5" stroke-miterlimit="10" width="150" height="50"/>
<text transform="matrix(1 0 0 1 236.2398 235.7499)" font-family="'Roboto-Light'" font-size="10">FirstMixin</text>
<rect x="362" y="207.7" fill="#FFFFFF" stroke="#000000" stroke-width="0.5" stroke-miterlimit="10" width="150" height="50"/>
<text transform="matrix(1 0 0 1 408.6456 236.9998)" font-family="'Roboto-Light'" font-size="10">SecondMixin</text>
<rect x="183" y="103.4" fill="#FFFFFF" stroke="#000000" stroke-width="0.5" stroke-miterlimit="10" width="150" height="50"/>
<text transform="matrix(1 0 0 1 225.3316 132.6496)" font-family="'Roboto-Light'" font-size="10">FirstMixinBase</text>
<g>
	<g>
		<line fill="none" stroke="#000000" stroke-miterlimit="10" x1="258" y1="103.4" x2="160.3" y2="49.8"/>
		<g>
			<polygon points="164,46.1 154,46.3 159.2,54.8 			"/>
		</g>
	</g>
</g>
<g>
	<g>
		<line fill="none" stroke="#000000" stroke-miterlimit="10" x1="182.5" y1="233.1" x2="180.5" y2="233.1"/>
		
			<line fill="none" stroke="#000000" stroke-miterlimit="10" stroke-dasharray="3.5845,1.7923" x1="178.7" y1="233" x2="158.1" y2="232.8"/>
		<line fill="none" stroke="#000000" stroke-miterlimit="10" x1="157.2" y1="232.8" x2="155.2" y2="232.8"/>
		<g>
			<path d="M162.1,228c0.1,0.2,0.1,0.5-0.2,0.7l-6.5,4l6.4,4.2c0.2,0.2,0.3,0.5,0.1,0.7s-0.5,0.3-0.7,0.1l-7.1-4.6
				c-0.1-0.1-0.2-0.3-0.2-0.4s0.1-0.3,0.2-0.4l7.2-4.4c0.1-0.1,0.2-0.1,0.3-0.1C161.8,227.8,162,227.9,162.1,228z"/>
		</g>
	</g>
</g>
<g>
	<g>
		<line fill="none" stroke="#000000" stroke-miterlimit="10" x1="258" y1="206.5" x2="258" y2="160.6"/>
		<g>
			<polygon points="263,162 258,153.4 253,162 			"/>
		</g>
	</g>
</g>
<g>
	<g>
		<line fill="none" stroke="#000000" stroke-miterlimit="10" x1="362" y1="233.2" x2="360" y2="233.2"/>
		
			<line fill="none" stroke="#000000" stroke-miterlimit="10" stroke-dasharray="3.6615,1.8307" x1="358.2" y1="233.2" x2="337.1" y2="233"/>
		<line fill="none" stroke="#000000" stroke-miterlimit="10" x1="336.2" y1="232.9" x2="334.2" y2="232.9"/>
		<g>
			<path d="M341.1,228.2c0.1,0.2,0.1,0.5-0.2,0.7l-6.5,4l6.4,4.2c0.2,0.2,0.3,0.5,0.1,0.7c-0.2,0.2-0.5,0.3-0.7,0.1l-7.1-4.6
				c-0.1-0.1-0.2-0.3-0.2-0.4s0.1-0.3,0.2-0.4l7.2-4.5c0.1-0.1,0.2-0.1,0.3-0.1C340.8,228,341,228.1,341.1,228.2z"/>
		</g>
	</g>
</g>
</svg>
